<svg width="18" height="16" viewBox="0 0 18 16" fill="none" xmlns="http://www.w3.org/2000/svg">
<path d="M9.22727 15.2273L1.92614 7.92614C1.34375 7.34375 0.955492 6.66667 0.761364 5.89489C0.57197 5.12311 0.574337 4.35606 0.768466 3.59375C0.962595 2.8267 1.34848 2.15909 1.92614 1.59091C2.51799 1.00852 3.19271 0.622632 3.95028 0.433239C4.71259 0.23911 5.47254 0.23911 6.23011 0.433239C6.99242 0.627367 7.66951 1.01326 8.26136 1.59091L9.22727 2.52841L10.1932 1.59091C10.7898 1.01326 11.4669 0.627367 12.2244 0.433239C12.982 0.23911 13.7396 0.23911 14.4972 0.433239C15.2595 0.622632 15.9366 1.00852 16.5284 1.59091C17.1061 2.15909 17.492 2.8267 17.6861 3.59375C17.8802 4.35606 17.8802 5.12311 17.6861 5.89489C17.4967 6.66667 17.1108 7.34375 16.5284 7.92614L9.22727 15.2273Z" fill="#F15A29"/>
</svg>
