<svg width="164" height="39" viewBox="0 0 164 39" fill="none" xmlns="http://www.w3.org/2000/svg">
<path d="M49.3146 18.5475C49.8834 18.6496 50.2932 18.7278 50.5562 18.7818C50.8192 18.8359 51.2167 18.9321 51.755 19.0763C52.2932 19.2206 52.6969 19.3648 52.9843 19.509C53.2657 19.6533 53.6021 19.8576 53.9935 20.128C54.3788 20.3985 54.6724 20.687 54.8742 20.9935C55.0761 21.3 55.2473 21.6906 55.3941 22.1534C55.5409 22.6161 55.6143 23.1269 55.6143 23.6859C55.6143 25.3987 54.966 26.7629 53.6632 27.7846C52.3605 28.8062 50.6418 29.3171 48.5012 29.3171C46.3605 29.3171 44.6418 28.7702 43.3391 27.6764C42.0363 26.5826 41.3758 25.1402 41.3574 23.3433H45.8284C45.8467 24.0645 46.1158 24.6174 46.6296 24.996C47.1434 25.3806 47.8223 25.5669 48.6602 25.5669C49.3513 25.5669 49.9323 25.4227 50.3911 25.1342C50.8498 24.8458 51.0822 24.4311 51.0822 23.8962C51.0822 23.6258 51.0027 23.3914 50.8437 23.187C50.6846 22.9827 50.44 22.8084 50.1036 22.6762C49.7672 22.544 49.4308 22.4358 49.0944 22.3517C48.758 22.2675 48.3299 22.1894 47.8039 22.1053C47.1128 22.0031 46.5378 21.9009 46.0914 21.7988C45.6388 21.6966 45.1067 21.5163 44.4889 21.2579C43.8712 20.9995 43.3758 20.705 43.0088 20.3744C42.6418 20.0439 42.3238 19.5932 42.0486 19.0162C41.7733 18.4393 41.6388 17.7662 41.6388 17.0029C41.6388 15.4344 42.2687 14.1603 43.5287 13.1687C44.7886 12.177 46.44 11.6842 48.4889 11.6842C50.5379 11.6842 52.1831 12.1951 53.4308 13.2167C54.6785 14.2384 55.3024 15.5846 55.3024 17.2553H50.9293C50.9293 15.9332 50.0791 15.2781 48.3788 15.2781C47.6632 15.2781 47.1067 15.4223 46.7091 15.7108C46.3116 15.9993 46.1097 16.3899 46.1097 16.8887C46.1097 17.0931 46.1648 17.2854 46.281 17.4597C46.3972 17.634 46.5317 17.7722 46.6908 17.8744C46.8498 17.9765 47.0944 18.0727 47.4308 18.1688C47.7672 18.259 48.0486 18.3311 48.281 18.3672C48.5012 18.4032 48.8498 18.4633 49.3146 18.5475ZM67.125 24.8217H69.2045V28.8423H65.9323C64.0669 28.8423 62.5929 28.3134 61.5226 27.2497C60.4522 26.186 59.9201 24.7316 59.9201 22.8745V15.7589H56.8375V14.7973L63.5409 7.77783H64.4216V12.141H69.1128V15.7589H64.5195V22.2856C64.5195 23.0909 64.7458 23.7159 65.1984 24.1546C65.6449 24.6054 66.2871 24.8217 67.125 24.8217Z" fill="black"/>
<path d="M86.4535 12.1109H89.8847V28.8122H86.2639L85.8846 27.3278C84.3311 28.65 82.4963 29.305 80.3739 29.305C77.8113 29.305 75.6889 28.4637 74.0009 26.7869C72.3128 25.1042 71.4688 23.0007 71.4688 20.4646C71.4688 17.9464 72.3128 15.855 74.0009 14.1843C75.6889 12.5136 77.8174 11.6782 80.3739 11.6782C82.533 11.6782 84.3923 12.3573 85.9458 13.7215L86.4535 12.1109ZM77.4382 23.7399C78.3067 24.6053 79.4076 25.0381 80.7409 25.0381C82.0743 25.0381 83.1813 24.6053 84.062 23.7399C84.9428 22.8745 85.3831 21.7807 85.3831 20.4586C85.3831 19.1364 84.9428 18.0486 84.062 17.1772C83.1813 16.3118 82.0804 15.8791 80.7593 15.8791C79.8785 15.8791 79.0834 16.0774 78.3801 16.48C77.6767 16.8827 77.1262 17.4296 76.7287 18.1207C76.3311 18.8119 76.1293 19.5871 76.1293 20.4586C76.1293 21.7807 76.5697 22.8745 77.4382 23.7399Z" fill="black"/>
<path d="M102.978 12.0508H104.488V16.3178H102.507C101.204 16.3178 100.274 16.6183 99.7239 17.2133C99.1673 17.8142 98.8921 18.7878 98.8921 20.1521V28.8423H94.2988V12.141H97.2591L98.0786 14.1843C99.2224 12.76 100.862 12.0508 102.978 12.0508Z" fill="black"/>
<path d="M107.1 28.8423V6.1131H111.693V28.8423H107.1Z" fill="black"/>
<path d="M116.104 28.8423V12.141H120.697V28.8423H116.104Z" fill="black"/>
<path d="M134.802 11.7383C136.734 11.7383 138.257 12.3693 139.383 13.6434C140.502 14.9115 141.065 16.6063 141.065 18.7338V28.8423H136.471V19.4429C136.471 16.9488 135.487 15.6988 133.511 15.6988C132.734 15.6988 132.055 15.8731 131.481 16.2277C130.906 16.5762 130.459 17.0811 130.159 17.7421C129.854 18.4032 129.701 19.1785 129.701 20.0619V28.8423H125.107V12.141H128.257L129.169 14.2144C129.481 13.8237 129.847 13.4752 130.257 13.1807C130.667 12.8802 131.114 12.6218 131.597 12.4054C132.08 12.189 132.588 12.0268 133.126 11.9126C133.658 11.7984 134.214 11.7383 134.802 11.7383Z" fill="black"/>
<path d="M159.009 12.141H162V26.8951C162 28.6259 161.645 30.1284 160.948 31.3965C160.245 32.6646 159.241 33.6382 157.939 34.3173C156.636 34.9964 155.095 35.3389 153.315 35.3389C151.003 35.3389 149.082 34.792 147.541 33.6983C146 32.6045 145.04 31.108 144.66 29.2149H149.223C149.474 29.9181 149.975 30.465 150.734 30.8676C151.492 31.2703 152.318 31.4686 153.223 31.4686C154.44 31.4686 155.456 31.114 156.263 30.3989C157.07 29.6897 157.474 28.7341 157.474 27.5382V26.9192C156.067 27.9108 154.452 28.4036 152.624 28.4036C151.07 28.4036 149.645 28.037 148.342 27.3038C147.04 26.5706 146.024 25.5669 145.29 24.2868C144.556 23.0068 144.189 21.5944 144.189 20.0499C144.189 17.7181 145.003 15.7409 146.63 14.1122C148.257 12.4835 150.257 11.6662 152.624 11.6662C154.826 11.6662 156.715 12.3754 158.287 13.7997L159.009 12.141ZM153.156 24.389C154.416 24.389 155.456 23.9804 156.269 23.169C157.089 22.3577 157.498 21.318 157.498 20.0619C157.498 18.8239 157.095 17.8022 156.287 16.9849C155.48 16.1736 154.434 15.7649 153.156 15.7649C151.92 15.7649 150.887 16.1736 150.073 16.9849C149.254 17.8022 148.844 18.8239 148.844 20.0619C148.844 21.318 149.248 22.3577 150.055 23.169C150.862 23.9864 151.896 24.389 153.156 24.389Z" fill="black"/>
<path d="M10.1651 19.9597L2.263 27.7244C2.13456 27.6704 2.12844 27.6704 2 27.6163V12.3032C2.12844 12.2491 2.13456 12.2491 2.263 12.195L10.1651 19.9597Z" fill="black"/>
<path d="M34.5453 19.8516V20.0619L30.6798 23.8601H30.4658L26.4902 19.9597L30.4658 16.0533H30.6798L34.5453 19.8516Z" fill="#F15A29"/>
<path d="M122.433 6.79221V7.00856L118.568 10.8008H118.348L114.482 7.00255V6.79822L118.348 3H118.568L122.433 6.79221Z" fill="#F15A29"/>
<path d="M22.4024 15.9452V9.8512C22.4024 6.56983 19.699 3.91348 16.3596 3.91348H2.36569C2.31676 4.0457 2.31065 4.05171 2.26172 4.17792L14.2434 15.9512L10.1639 19.9597L14.2434 23.9683L2.26172 35.7416C2.31676 35.8678 2.31676 35.8738 2.37181 36L16.3657 36.006C19.699 36.006 22.4085 33.3497 22.4085 30.0683V23.9743L26.4941 19.9597L22.4024 15.9452ZM14.2434 23.9683V15.9512L18.3229 19.9597L14.2434 23.9683Z" fill="black"/>
</svg>
